<?xml version="1.0" encoding="utf-8"?>
<!-- Generator: Adobe Illustrator 18.0.0, SVG Export Plug-In . SVG Version: 6.00 Build 0)  -->
<!DOCTYPE svg PUBLIC "-//W3C//DTD SVG 1.1//EN" "http://www.w3.org/Graphics/SVG/1.1/DTD/svg11.dtd">
<svg version="1.1" id="Camada_1" xmlns="http://www.w3.org/2000/svg" xmlns:xlink="http://www.w3.org/1999/xlink" x="0px" y="0px"
	 viewBox="0 0 93.1 33.9" enable-background="new 0 0 93.1 33.9" xml:space="preserve">
<path fill="#734DFF" d="M21.7,4c-0.6,0-1.1,0.5-1.1,1v19.3L7.9,31.7L3,28.9l12.2-7.1c0.3-0.2,0.5-0.6,0.5-1V1.1c0-0.2,0-0.5-0.2-0.7
	c-0.3-0.4-0.9-0.5-1.3-0.3L0.5,8.1C0.2,8.3,0,8.6,0,9v19.8c0,0,0,0.1,0,0.1c0,0.1,0,0.3,0.1,0.3c0,0,0,0,0,0c0,0,0,0.1,0.1,0.1
	c0,0,0,0,0.1,0.1c0,0,0,0,0,0.1c0,0,0,0,0,0c0,0,0,0,0,0c0,0,0.1,0.1,0.1,0.1c0,0,0.1,0,0.1,0.1c0,0,0,0,0.1,0l6.9,4
	c0.2,0.1,0.3,0.1,0.5,0.1c0.2,0,0.4,0,0.5-0.1l13.8-8c0.3-0.2,0.5-0.5,0.5-0.9V5C22.8,4.4,22.3,4,21.7,4z M2.1,9.6
	C2.1,9.6,2.1,9.6,2.1,9.6l11.5-6.8c0.1,0,0.1,0,0.1,0.1v17.4c0,0,0,0.1,0,0.1L2.2,27.1c-0.1,0-0.1,0-0.1-0.1V9.6z"/>
<path fill="#734DFF" d="M4.6,12.8l7.3-4.1c0.2-0.1,0.4-0.3,0.4-0.6v0c0-0.5-0.6-0.8-1-0.6L4,11.7c-0.2,0.1-0.3,0.3-0.3,0.6
	C3.7,12.8,4.2,13.1,4.6,12.8z"/>
<path fill="#734DFF" d="M4.6,16.1l7.3-4.1c0.2-0.1,0.4-0.3,0.4-0.6v0c0-0.5-0.6-0.8-1-0.6L4,14.9c-0.2,0.1-0.3,0.3-0.3,0.6
	C3.7,16,4.2,16.3,4.6,16.1z"/>
<path fill="#734DFF" d="M4.6,19.3l7.3-4.1c0.2-0.1,0.4-0.3,0.4-0.6v0c0-0.5-0.6-0.8-1-0.6L4,18.1c-0.2,0.1-0.3,0.3-0.3,0.6
	C3.7,19.2,4.2,19.5,4.6,19.3z"/>
<g>
	<path fill="#3E3749" d="M42.2,19.3c0,2.7-2.2,4.9-4.9,4.9c-1,0-2-0.3-2.7-0.8c-0.2,0.5-0.6,0.8-1.1,0.8c-0.7,0-1.2-0.5-1.2-1.2
		V10.8c0-0.6,0.6-1.2,1.2-1.2c0.6,0,1.2,0.5,1.2,1.2v4.5c0.7-0.5,1.6-0.8,2.6-0.8C40,14.5,42.2,16.6,42.2,19.3z M39.8,19.3
		c0-1.4-1.2-2.5-2.5-2.5c-1.4,0-2.5,1.1-2.5,2.5s1.1,2.5,2.5,2.5C38.7,21.9,39.8,20.7,39.8,19.3z"/>
	<path fill="#3E3749" d="M48.5,24.2c-2.7,0-4.8-2.2-4.8-4.8c0-2.7,2.2-4.8,4.8-4.8c2.7,0,4.8,2.2,4.8,4.8
		C53.3,22,51.2,24.2,48.5,24.2z M48.5,16.9c-1.4,0-2.5,1.1-2.5,2.5c0,1.4,1.1,2.5,2.5,2.5c1.4,0,2.5-1.1,2.5-2.5
		C51,18,49.9,16.9,48.5,16.9z"/>
	<path fill="#3E3749" d="M59.8,24.2c-2.7,0-4.8-2.2-4.8-4.8c0-2.7,2.2-4.8,4.8-4.8c2.7,0,4.8,2.2,4.8,4.8
		C64.6,22,62.5,24.2,59.8,24.2z M59.8,16.9c-1.4,0-2.5,1.1-2.5,2.5c0,1.4,1.1,2.5,2.5,2.5c1.4,0,2.5-1.1,2.5-2.5
		C62.3,18,61.2,16.9,59.8,16.9z"/>
	<path fill="#3E3749" d="M74.4,23.8c-0.2,0.2-0.6,0.4-0.9,0.4c-0.3,0-0.6-0.1-0.8-0.3l-4-3.6v2.9c0,0.7-0.4,1.2-1.1,1.2
		c-0.7,0-1.1-0.5-1.1-1.2V10.9c0-0.7,0.4-1.2,1.1-1.2c0.7,0,1.1,0.5,1.1,1.2v6.5l3.8-2.6c0.5-0.4,1.3-0.2,1.7,0.3
		c0.4,0.5,0.3,1.2-0.3,1.6l-3.2,2.2l3.6,3.3C74.8,22.6,74.8,23.3,74.4,23.8z"/>
	<path fill="#3E3749" d="M84.5,17.5C84,18,83.3,18,82.8,17.6c-0.4-0.4-1-0.6-1.6-0.6c-1.3,0-2.4,1.1-2.4,2.5v3.6
		c0,0.6-0.6,1.2-1.2,1.2c-0.6,0-1.2-0.5-1.2-1.2v-7.4c0-0.6,0.6-1.1,1.2-1.1c0.5,0,1,0.3,1.1,0.8c0.7-0.4,1.6-0.7,2.5-0.7
		c1.2,0,2.3,0.5,3.2,1.3C84.9,16.3,84.9,17.1,84.5,17.5z"/>
	<path fill="#3E3749" d="M89.7,24.3c-1.2,0-2.5-0.5-3.1-1.1c-0.5-0.4-0.5-1.2-0.1-1.6c0.4-0.5,1.2-0.5,1.6-0.1
		c0.3,0.3,1.6,0.8,2.4,0.3c0.2-0.1,0.3-0.3,0.3-0.5c0-0.3-0.2-0.5-0.4-0.5c-0.2-0.1-0.5-0.1-0.8-0.1c-0.5,0-1,0-1.5-0.2
		C87,20,86.2,19,86.2,18c-0.1-1.2,0.4-2,0.9-2.4c1-0.9,2.4-1,3.4-0.8c0.8,0.1,1.3,0.4,1.8,0.8c0.5,0.4,0.5,1.2,0.1,1.6
		c-0.2,0.3-0.6,0.4-1,0.4c-0.2,0-0.3-0.1-0.5-0.2c-0.3-0.2-0.5-0.3-0.8-0.4c-0.6-0.1-1.7-0.1-1.6,0.8c0,0.1,0.2,0.3,0.3,0.4
		c0.2,0.1,0.5,0.1,0.8,0.1c0.5,0,1.1,0,1.8,0.3c1.1,0.5,1.7,1.5,1.7,2.6c0,1-0.5,1.9-1.3,2.5C91.1,24.1,90.4,24.3,89.7,24.3z"/>
</g>
</svg>
